# xmcd
#
# Track frame offsets:
#	150
#	17037
#	28977
#	39525
#	56627
#	79227
#	95340
#	113300
#	135170
#	149045
#	166720
#	177257
#	187795
#	198337
#	208860
#	215762
#	224145
#	236102
#	249990
#	260547
#	277462
#
# Disc length: 3934 seconds
#
# Revision: 1
# Processed by: cddbd v1.5.1PL0 Copyright (c) Steve Scherf et al.
# Submitted via: CDex 1.50Beta5
#
DISCID=3f0f5c15
DTITLE=MAHO堂 - おジャ魔女どれみ＃ MEMORIAL CD BOX disc2
DYEAR=2003
DGENRE=Anime
TTITLE0=おジャ魔女はココにいる
TTITLE1=空までJumping
TTITLE2=ルビナスの子守唄
TTITLE3=アイスクリームチャイルド
TTITLE4=耳をすまして
TTITLE5=歩き出そうよ
TTITLE6=half point
TTITLE7=ホップ・ステップ・ポップ
TTITLE8=ともだちの唄
TTITLE9=声をきかせて
TTITLE10=ルビナスの子守唄(どれみ)
TTITLE11=ルビナスの子守唄(はづき)
TTITLE12=ルビナスの子守唄(あいこ)
TTITLE13=ルビナスの子守唄(おんぷ)
TTITLE14=おジャ魔女はココにいる(TVサイズ)
TTITLE15=声をきかせて(TVサイズ)
TTITLE16=空までJumping(カラオケ)
TTITLE17=ともだちの唄(カラオケ)
TTITLE18=ルビナスの子守唄(カラオケ)
TTITLE19=おジャ魔女はココにいる(カラオケ)
TTITLE20=声をきかせて(カラオケ)
EXTD=
EXTT0=
EXTT1=
EXTT2=
EXTT3=
EXTT4=
EXTT5=
EXTT6=
EXTT7=
EXTT8=
EXTT9=
EXTT10=
EXTT11=
EXTT12=
EXTT13=
EXTT14=
EXTT15=
EXTT16=
EXTT17=
EXTT18=
EXTT19=
EXTT20=
PLAYORDER=
